<?xml version="1.0" encoding="UTF-8" standalone="no"?>
<!-- Created with Inkscape (http://www.inkscape.org/) -->

<svg
   version="1.1"
   id="svg1"
   width="1056"
   height="992"
   viewBox="0 0 1056 992"
   xmlns="http://www.w3.org/2000/svg"
   xmlns:svg="http://www.w3.org/2000/svg">
  <defs
     id="defs1" />
  <g
     id="g1">
    <path
       style="fill:#FFFFFF;stroke-width:1.35362"
       d="m 599.49229,982.85498 c 7.44316,-1.95224 14.44813,-3.55181 15.5666,-3.55461 1.11847,-0.003 5.68835,-1.8279 10.15529,-4.05577 4.46693,-2.22786 8.77868,-4.05296 9.58166,-4.05576 7.41621,-0.0258 50.5995,-38.43686 83.70443,-74.45404 5.13219,-5.58368 12.79869,-13.8069 17.03666,-18.27384 8.34726,-8.79823 17.82365,-19.60077 22.67631,-25.84969 1.6785,-2.16144 4.68218,-5.97632 6.67485,-8.4775 4.54854,-5.70929 12.14871,-18.26828 13.35477,-22.06823 0.50179,-1.58103 2.67102,-5.64771 4.82048,-9.03706 2.14947,-3.38935 3.90811,-7.13266 3.90811,-8.31847 0,-1.18581 1.26413,-4.56904 2.80918,-7.51829 3.8814,-7.409 9.08782,-22.241 12.33569,-35.14185 1.49944,-5.95592 4.20278,-15.63496 6.00742,-21.50898 1.80463,-5.87403 3.90712,-16.83833 4.67222,-24.36512 0.76507,-7.52679 2.61198,-18.49167 4.10422,-24.36642 1.79986,-7.08581 3.37834,-20.98321 4.68923,-41.28533 1.08684,-16.83218 2.60526,-36.3907 3.37427,-43.46335 2.18813,-20.12446 3.13068,-84.09798 1.45449,-98.72068 -1.56516,-13.65405 -0.72114,-16.78269 6.80801,-25.23614 3.94732,-4.4319 11.95731,-18.20545 14.89805,-25.6179 1.47681,-3.72245 3.80032,-8.90003 5.16338,-11.50575 7.47954,-14.29853 10.95777,-24.18334 12.78753,-36.34094 1.08156,-7.18636 2.86648,-15.59901 3.96649,-18.69478 5.5344,-15.57567 5.71275,-86.91403 0.24998,-99.98828 -1.17343,-2.80845 -3.08105,-8.82254 -4.23912,-13.36466 -1.15809,-4.54213 -3.50092,-10.39835 -5.20628,-13.01383 -1.70537,-2.61548 -3.53301,-6.11756 -4.06141,-7.7824 -2.65398,-8.36197 -16.93825,-27.13891 -32.25046,-42.39386 -12.00257,-11.95767 -12.4875,-12.88432 -11.98481,-22.90132 1.00269,-19.98042 -7.81518,-89.33168 -12.51356,-98.417347 -1.08548,-2.099068 -3.02513,-7.463223 -4.31033,-11.920334 -1.28522,-4.45711 -3.38295,-9.626656 -4.66162,-11.48788 -1.27868,-1.861224 -3.00613,-5.394246 -3.83876,-7.851156 -6.30902,-18.616246 -53.31879,-57.122478 -69.73715,-57.122478 -8.10867,0 -13.88181,6.47488 -15.15095,16.992622 -0.8462,7.012767 -2.68446,12.126287 -9.9495,27.676752 -3.36087,7.193786 -10.97976,16.227436 -24.0172,28.476983 -4.33781,4.07566 -18.60837,10.81103 -28.72584,13.557926 -4.95879,1.346308 -11.75705,3.548711 -15.10725,4.894234 -5.68349,2.282618 -14.92676,2.495208 -138.06898,3.175508 -131.97769,0.72911 -131.97769,0.72911 -142.80663,4.26638 -5.95592,1.9455 -13.83147,4.24954 -17.50123,5.12009 -3.66977,0.87055 -8.33225,2.76482 -10.36109,4.20948 -2.02884,1.44466 -4.27046,2.62665 -4.98137,2.62665 -0.7109,0 -3.96708,2.12603 -7.23593,4.72452 -3.26886,2.5985 -6.63473,4.73044 -7.47972,4.73766 -0.84498,0.007 -2.62368,1.68824 -3.95267,3.73559 -1.32898,2.04735 -3.53914,4.52411 -4.91146,5.50392 -1.37233,0.97981 -3.66071,4.0662 -5.08531,6.85864 -1.4246,2.79245 -3.50924,5.83993 -4.63253,6.77218 -1.1233,0.93225 -2.45592,3.63256 -2.96139,6.00072 -0.50545,2.36814 -2.35568,7.75111 -4.11161,11.96213 -2.21951,5.32279 -3.47333,11.71764 -4.11367,20.98107 -0.92108,13.32466 -0.92108,13.32466 -14.58764,26.87113 -21.47345,21.28478 -38.76967,49.02211 -43.21674,69.3051 -1.10873,5.05693 -3.0352,13.76287 -4.28106,19.34654 -3.38107,15.15348 -2.27164,69.82087 1.6783,82.69701 1.50579,4.90868 3.18512,12.17713 3.73182,16.15211 1.22831,8.93093 8.87883,32.82346 12.55841,39.21985 1.49897,2.60572 3.17241,6.26049 3.71877,8.12171 0.54637,1.86122 2.05182,4.90686 3.34545,6.76809 1.29362,1.86122 2.80724,4.90686 3.36356,6.76808 0.55633,1.86123 2.46363,5.32308 4.23845,7.69299 1.77481,2.36991 3.22693,4.88644 3.22693,5.59225 0,0.70583 1.97966,3.22408 4.39925,5.5961 4.39926,4.31278 4.39926,4.31278 3.97406,40.43073 -0.49354,41.92308 1.54417,92.78604 4.45671,111.24372 1.11604,7.07266 2.68227,23.07252 3.48051,35.55526 0.79826,12.48274 2.3395,25.88356 3.42501,29.77958 1.0855,3.89603 2.91306,12.87041 4.06123,19.94306 1.14816,7.07265 2.88607,16.20957 3.86202,20.30426 4.95736,20.79931 6.6285,27.01341 9.10058,33.84044 1.4827,4.09469 3.80725,10.92783 5.16568,15.18477 1.35841,4.25693 3.68415,9.73909 5.1683,12.18255 1.48415,2.44347 3.10788,6.38027 3.6083,8.74841 0.5004,2.36815 1.82888,5.06847 2.95218,6.00072 1.12329,0.93225 3.30396,4.17227 4.84595,7.20002 1.54199,3.02778 4.23854,7.38992 5.99236,9.69365 1.7538,2.30375 3.18873,4.82666 3.18873,5.60649 0,4.53836 38.16431,48.02949 69.20715,78.86683 34.46961,34.2414 52.04809,49.13842 64.80097,54.91608 2.60571,1.1805 7.75061,3.62182 11.43311,5.42515 3.6825,1.80333 7.9464,3.28305 9.47532,3.28828 1.52893,0.005 7.95746,1.28604 14.28562,2.84629 18.97566,4.67856 24.64986,5.06817 67.68087,4.64718 39.52636,-0.3867 41.8619,-0.55514 54.81835,-3.95344 z M 465.48732,812.67197 c -20.12998,-0.93271 -34.92109,-3.85207 -43.07968,-8.50276 -3.1078,-1.77154 -7.2787,-3.59744 -9.26867,-4.05753 -1.98996,-0.46011 -5.4281,-2.35955 -7.64029,-4.22099 -2.2122,-1.86144 -4.65861,-3.38443 -5.43648,-3.38443 -0.77785,0 -4.34469,-2.48481 -7.92629,-5.5218 -3.58161,-3.03699 -8.57708,-7.1486 -11.10105,-9.13692 -7.90329,-6.22602 -29.985,-28.90131 -32.06872,-32.93078 -1.09443,-2.11638 -2.57571,-3.84796 -3.29174,-3.84796 -4.65444,0 -35.16717,-58.34423 -37.7119,-72.10998 -0.78146,-4.22733 -2.33751,-9.4587 -3.45787,-11.62524 -1.12038,-2.16655 -3.22389,-9.33897 -4.67448,-15.9387 -1.45059,-6.59974 -3.33246,-13.80361 -4.1819,-16.00861 -0.84947,-2.20499 -2.77075,-12.56016 -4.26954,-23.01149 -1.49878,-10.45133 -3.645,-25.09369 -4.76935,-32.53858 -3.31107,-21.92414 -4.08508,-102.44351 -1.18409,-123.17919 1.24989,-8.93387 3.65108,-26.29401 5.336,-38.57809 2.92924,-21.35608 5.29052,-31.64013 12.43194,-54.1447 1.77188,-5.58367 4.16315,-13.7719 5.31394,-18.19607 1.15081,-4.42417 3.2878,-9.97823 4.74891,-12.34234 1.46109,-2.3641 2.65654,-5.13478 2.65654,-6.15705 0,-1.51981 6.15214,-15.41898 10.71922,-24.21732 2.39784,-4.61937 7.56848,-6.09539 15.23595,-4.34931 19.59701,4.46278 336.84434,5.84717 383.98706,1.67563 20.24018,-1.79101 23.90212,-0.51508 27.27619,9.50388 1.11673,3.31604 3.04682,7.55198 4.28907,9.41321 1.24226,1.86122 2.96643,6.12512 3.83148,9.47532 0.86506,3.3502 2.67545,7.99295 4.02312,10.3172 1.34764,2.32426 3.40939,8.44283 4.58164,13.59683 1.17226,5.154 3.10941,11.71169 4.30479,14.57263 1.19538,2.86095 3.01017,9.96092 4.03286,15.77771 1.02269,5.81679 3.11582,14.64368 4.6514,19.61531 1.53559,4.97163 3.39036,15.86513 4.1217,24.20777 0.73136,8.34264 2.40208,20.29453 3.7127,26.55976 3.40951,16.29862 3.4525,89.16896 0.0666,112.91264 -1.27398,8.93388 -2.96446,24.25838 -3.75661,34.05446 -0.89505,11.06846 -2.67264,21.9283 -4.69563,28.68709 -1.79045,5.98182 -3.65102,13.80418 -4.1346,17.383 -0.48359,3.57883 -2.65808,11.78216 -4.8322,18.22963 -2.17411,6.44746 -3.95293,12.6003 -3.95293,13.67297 0,1.07267 -1.42632,4.63285 -3.1696,7.91152 -1.74328,3.27866 -3.95822,8.39468 -4.92209,11.36895 -0.96387,2.97426 -3.19232,8.14397 -4.9521,11.48824 -1.75978,3.34429 -3.19961,6.76301 -3.19961,7.59718 0,0.83417 -1.67511,3.67416 -3.72245,6.31112 -2.04735,2.63695 -4.78911,6.52776 -6.09282,8.64624 -1.3037,2.11848 -3.6748,5.98372 -5.26909,8.58944 -8.03409,13.13083 -11.27051,16.97104 -29.09012,34.51724 -20.7311,20.41301 -25.81066,24.74637 -32.21629,27.48363 -2.27157,0.97069 -5.35274,2.85179 -6.84704,4.18019 -1.4943,1.32841 -4.84885,3.2416 -7.45456,4.25153 -2.60571,1.00995 -6.39414,3.03668 -8.4187,4.50388 -7.86222,5.69768 -59.73047,11.2285 -72.51936,7.73289 -6.64199,-1.81545 -8.40067,-4.83917 -8.40067,-14.44328 0,-34.68901 -50.96188,-28.69476 -59.7526,-19.90404 -2.90199,2.90199 -8.49846,17.48378 -9.90464,25.80692 -1.64494,9.73631 -2.58522,9.94201 -37.95535,8.30315 z m -3.08661,-77.74161 c 34.25908,-5.11489 56.40344,-13.65996 70.12696,-27.06063 6.08091,-5.93786 6.96483,-5.89137 15.37825,0.80863 16.87576,13.43899 33.15182,20.02876 63.43457,25.68307 29.44969,5.49878 71.49771,1.80892 84.85271,-7.4461 2.73298,-1.89395 5.63185,-3.44356 6.44193,-3.44356 3.12379,0 15.08579,-12.37534 17.32627,-17.92495 3.05795,-7.57449 4.25019,-30.35586 2.12304,-40.56694 -2.13485,-10.248 -12.17528,-23.08201 -17.5674,-22.45523 -3.50029,0.40688 -3.50029,0.40688 -3.08875,13.26625 0.41153,12.85937 0.41153,12.85937 -5.49436,19.16734 -6.96092,7.43483 -13.6567,9.12525 -27.23375,6.87546 -7.77237,-1.28793 -11.85014,-3.20649 -22.87486,-10.76246 -2.40226,-1.64643 -7.14708,-4.49228 -10.54403,-6.3241 -3.39698,-1.83181 -6.97404,-4.2918 -7.94906,-5.4666 -0.97501,-1.17482 -2.5651,-2.13602 -3.53356,-2.13602 -0.96846,0 -3.48267,-1.41299 -5.58712,-3.13999 -19.58664,-16.07337 -54.65588,-19.47562 -72.03683,-6.98864 -7.76252,5.57682 -7.86987,5.56705 -18.83921,-1.71398 -11.17831,-7.41973 -40.89458,-7.79309 -53.15913,-0.66788 -4.15488,2.41383 -8.28118,4.38878 -9.16954,4.38878 -1.61252,0 -10.07431,5.49949 -19.27474,12.52706 -2.67599,2.04398 -5.3778,3.71635 -6.00403,3.71635 -0.62624,0 -2.39612,1.14128 -3.93309,2.53618 -14.50682,13.16596 -43.86941,18.56592 -52.23833,9.60696 -6.63538,-7.1032 -8.86003,-15.07354 -6.88126,-24.65381 2.59478,-12.56264 -2.12605,-14.02333 -12.86112,-3.97942 -21.15112,19.78928 -13.27944,63.24493 13.9762,77.15577 18.82633,9.60865 54.85711,13.4406 84.61024,8.99846 z"
       id="path1" />
  </g>
</svg>
