<?xml version="1.0" encoding="iso-8859-1"?>
<!-- Uploaded to: SVG Repo, www.svgrepo.com, Generator: SVG Repo Mixer Tools -->
<svg fill="#FFFFFF" height="800px" width="800px" version="1.1" id="Layer_1" xmlns="http://www.w3.org/2000/svg" xmlns:xlink="http://www.w3.org/1999/xlink"
	 viewBox="0 0 512.001 512.001" xml:space="preserve">
<g>
	<g>
		<path d="M404.81,161.966C433.17,66.691,377.587,5.372,375.166,2.769c-2.308-2.491-5.875-3.384-9.077-2.326
			c-3.237,1.076-5.536,3.931-5.901,7.307c-1.059,9.797-3.228,19.942-5.563,27.023c-6.63-14.779-20.445-34.773-46.557-34.773
			c-4.773,0-8.643,3.879-8.678,8.652c-0.009,0.972-0.304,22.007-13.399,25.548L262.943,3.472c-3.272-4.374-10.613-4.374-13.885,0
			L226.009,34.2c-13.095-3.541-13.39-24.576-13.399-25.522c0-4.799-3.879-8.678-8.678-8.678c-26.112,0-39.927,19.994-46.557,34.773
			c-2.334-7.081-4.504-17.226-5.563-27.023c-0.365-3.376-2.664-6.231-5.901-7.307c-3.211-1.067-6.769-0.174-9.077,2.326
			c-2.421,2.603-58.004,63.922-29.644,159.197c-0.972,1.701-1.848,3.454-2.629,5.294c-3.159,7.506-4.764,15.464-4.764,23.63
			l-0.234,79.108c0,59.271,5.823,119.643,48.05,159.744c6.804,6.456,14.128,12.219,21.608,17.642v55.938
			c0,4.799,3.879,8.678,8.678,8.678c4.799,0,8.678-3.879,8.678-8.678v-43.937c0.365,0.243,0.729,0.477,1.085,0.729
			c0.538,0.347,1.067,0.712,1.597,1.067l8.34,5.597c3.28,2.23,6.5,4.599,9.702,6.968c13.885,10.275,28.255,20.897,48.466,20.897
			s34.573-10.622,48.466-20.897c3.202-2.369,6.413-4.738,9.702-6.968l8.34-5.597l0.555-0.382l2.595-1.736v44.258
			c0,4.799,3.879,8.678,8.678,8.678c4.799,0,8.678-3.879,8.678-8.678v-56.268c7.324-5.337,14.475-10.995,21.139-17.313
			c42.435-40.292,48.284-101.055,48.284-160.725v-78.102c0-8.192-1.605-16.15-4.773-23.665
			C406.658,165.42,405.773,163.667,404.81,161.966z M394.848,269.018c0,55.799-5.198,112.354-42.878,148.124
			c-7.697,7.307-16.375,13.807-25.244,19.985c-4.703,3.289-9.442,6.508-14.215,9.693l-8.322,5.589
			c-3.489,2.36-6.882,4.877-10.275,7.385c-12.167,8.999-23.656,17.495-38.148,17.495c-14.492,0-25.982-8.496-38.157-17.495
			c-3.384-2.508-6.786-5.025-10.266-7.385l-2.985-2.005l-5.129-3.445c-4.834-3.228-9.641-6.491-14.414-9.815
			c-8.869-6.187-17.564-12.687-25.253-20.003c-39.346-37.341-42.643-95.527-42.643-147.118l0.234-79.108
			c0-5.866,1.146-11.55,3.402-16.896c0.547-1.302,1.232-2.491,1.918-3.688c0.425-0.72,0.85-1.441,1.371-2.204
			c0-0.017,0-0.035,0.009-0.043c7.012-10.344,19.161-16.393,32.317-16.393c4.999,0,10.136,0.868,15.169,2.69
			c13.243,4.79,38.669,10.5,84.662,10.5c45.993,0,71.42-5.71,84.662-10.5c18.267-6.613,37.749-0.607,47.442,13.598
			c0.035,0.043,0.035,0.104,0.052,0.148c0.087,0.122,0.139,0.226,0.226,0.347c1.128,1.727,2.196,3.506,3.029,5.458
			c0,0.026,0.017,0.052,0.026,0.078c0.911,2.143,1.493,4.374,2.048,6.604c0.816,3.367,1.362,6.786,1.362,10.301V269.018z"/>
	</g>
</g>
</svg>
